<svg width="391" height="115" viewBox="0 0 391 115" fill="none" xmlns="http://www.w3.org/2000/svg">
<path d="M345.688 36.646L366.312 25.376L359.335 47.7626L345.688 36.646Z" fill="#E67202"/>
<path d="M321.922 100.356L332.579 103.576L332.196 85.4063L321.922 100.356ZM358.339 100.51L367.922 95.373L355.119 83.0296L358.339 100.51ZM337.716 82.8763L344.922 96.523L349.216 81.6496L337.716 82.8763ZM315.406 87.7063L329.206 80.1163L320.082 72.6796L315.406 87.7063ZM296.162 74.213L301.529 84.103L314.332 70.8396L296.162 74.213ZM357.496 77.5096L371.986 82.033L364.626 68.693L357.496 77.5096ZM369.686 65.1663L384.099 75.0563L387.166 64.8596L369.686 65.1663ZM300.762 60.5663L316.019 65.013L314.792 53.2063L300.762 60.5663ZM367.539 59.493L380.879 52.4396L366.389 48.2996L367.539 59.493ZM293.556 48.223L311.956 47.8396L296.776 37.413L293.556 48.223ZM317.246 44.8496L324.682 35.7263L309.656 31.0496L317.246 44.8496ZM367.309 42.243L384.482 39.023L379.499 29.6696L367.309 42.243ZM332.426 31.3563L343.926 30.2063L336.719 16.483L332.426 31.3563ZM313.489 17.403L326.599 29.9763L323.302 12.113C323.226 12.1896 313.489 17.403 313.489 17.403ZM349.446 27.6763L359.566 13.033L349.139 9.88965L349.446 27.6763Z" fill="#3a4656"/>
<path d="M278.53 97.2134C280.677 97.2134 282.363 98.9767 282.363 101.123C282.363 103.27 280.677 105.033 278.53 105.033C276.383 105.033 274.697 103.27 274.697 101.123C274.697 98.9767 276.383 97.2134 278.53 97.2134ZM278.53 104.19C280.217 104.19 281.444 102.81 281.444 101.123C281.444 99.4367 280.14 98.0568 278.53 98.0568C276.92 98.0568 275.694 99.4367 275.694 101.123C275.694 102.81 276.92 104.19 278.53 104.19ZM277.15 99.1301H278.76C279.527 99.1301 280.063 99.5901 280.063 100.357C280.063 100.97 279.68 101.277 279.373 101.353C279.373 101.353 279.374 101.43 279.527 101.583L280.294 103.04H279.297L278.607 101.583H278.07V103.04H277.15V99.1301ZM278.607 100.97C278.99 100.97 279.144 100.74 279.144 100.357C279.144 99.9734 278.913 99.7434 278.607 99.7434H278.07V100.893H278.607V100.97ZM251.084 104.19C250.394 104.037 249.78 103.883 249.09 103.73C241.577 102.273 236.134 96.6768 234.754 89.1634C234.14 85.8668 234.294 82.5701 234.6 79.2734C234.984 74.9801 235.98 70.8401 237.744 66.8534C240.197 61.2567 243.953 56.7334 249.397 53.8201C252.387 52.2101 255.607 51.3667 258.98 51.0601C261.97 50.7534 264.884 50.9067 267.72 51.6734C274.467 53.5134 278.607 57.8834 280.37 64.6301C281.137 67.5434 281.214 70.5334 281.06 73.5234C280.83 79.6567 279.603 85.5601 276.69 91.0034C273.087 97.6734 267.643 102.043 260.13 103.73C259.21 103.96 258.214 104.113 257.294 104.343L251.084 104.19ZM248.323 84.4101C248.4 85.1001 248.4 86.3267 248.63 87.4767C249.167 90.4667 250.777 92.3067 253.537 92.8434C256.374 93.3801 258.904 92.6134 261.05 90.6201C262.584 89.2401 263.657 87.5534 264.5 85.6367C266.724 80.8067 267.414 75.6701 267.337 70.4567C267.337 68.7701 267.03 67.0834 266.263 65.5501C265.343 63.7101 263.887 62.6368 261.817 62.3301C259.21 62.0234 256.987 62.8667 255.07 64.5534C253.92 65.6267 252.923 66.9301 252.157 68.3101C249.627 73.2167 248.553 78.4301 248.323 84.4101ZM238.204 52.0567C234.6 69.0767 230.997 86.0968 227.394 103.193H213.747C213.67 102.273 223.483 55.5067 224.48 52.0567C225.247 51.8267 237.054 51.8267 238.204 52.0567ZM233.527 45.5401C234.14 45.4634 234.677 45.4634 235.213 45.3867C238.28 45.0801 240.58 43.2401 241.347 40.2501C241.577 39.4067 241.73 38.4867 241.73 37.5667C241.807 34.3467 240.273 32.4301 237.13 31.8934C235.443 31.5867 233.68 31.5867 231.994 32.0467C229.31 32.7367 227.47 34.3467 226.857 37.1834C226.627 38.1801 226.55 39.1768 226.55 40.1734C226.627 42.9334 228.007 44.5434 230.69 45.1567C231.687 45.3867 232.607 45.4634 233.527 45.5401ZM210.144 31.8167C209.454 34.0401 195.04 102.273 195.117 103.193H208.763C213.823 79.4268 218.807 55.6601 223.867 31.8167H210.144ZM187.297 51.9801H201.173C197.57 69.0767 193.967 86.0968 190.364 103.117C189.52 103.347 178.174 103.423 176.487 103.193C180.014 86.0968 183.617 69.1534 187.297 51.9801ZM196.037 45.5401C196.957 45.4634 197.493 45.4634 198.107 45.3867C201.25 45.0801 203.474 43.2401 204.317 40.1734C204.547 39.4068 204.7 38.5634 204.7 37.7201C204.854 34.6534 203.473 32.6601 200.407 32.0467C198.26 31.5867 196.114 31.6634 194.044 32.3534C191.974 33.0434 190.517 34.5001 189.904 36.6467C189.52 37.9501 189.367 39.2534 189.444 40.5568C189.674 43.0868 190.977 44.6201 193.43 45.2334C194.427 45.3867 195.424 45.3867 196.037 45.5401ZM159.62 104.19C160.004 104.113 160.31 104.037 160.694 103.96C163.3 103.653 165.907 103.04 168.284 101.89C171.504 100.357 174.187 98.1334 175.873 94.9134C177.253 92.1534 177.714 89.2401 177.714 86.1734C177.637 82.6468 176.41 79.6567 173.957 77.1267C171.963 75.0567 169.587 73.6001 167.057 72.2968C165.293 71.3001 163.53 70.3034 161.844 69.1534C160.387 68.1567 159.697 66.7001 160.08 64.9367C160.387 63.1734 161.69 62.2534 163.223 61.7167C164.987 61.1801 166.75 61.2568 168.514 61.5634C171.427 62.0234 174.033 63.1734 176.64 64.5534C176.947 64.7067 177.33 64.9367 177.79 65.1667C179.323 61.7934 180.78 58.5734 182.314 55.2767C181.777 54.9701 181.317 54.6634 180.857 54.4334C176.947 52.4401 172.73 51.2901 168.36 50.9834C164.68 50.7534 161 50.9067 157.397 51.9034C153.257 53.0534 149.96 55.2767 147.89 59.1867C146.357 62.0234 145.974 65.1667 146.127 68.3867C146.28 71.5301 147.507 74.2134 149.807 76.3601C151.263 77.8167 152.95 78.9667 154.637 80.0401C156.247 81.0367 157.934 81.8801 159.467 82.9534C160.54 83.6434 161.69 84.4868 162.534 85.4068C164.45 87.4001 164.144 90.3901 161.92 92.0767C161.384 92.5367 160.694 92.8434 160.08 93.1501C158.317 93.9168 156.554 94.0701 154.637 93.9934C150.037 93.8401 145.744 92.5368 141.68 90.3901C141.374 90.2368 141.067 90.0834 140.684 89.9301V101.2C140.914 101.353 141.067 101.43 141.297 101.583C143.597 102.657 145.974 103.347 148.504 103.73C149.577 103.883 150.65 104.037 151.723 104.19H159.62ZM104.65 51.9801C101.047 69.0767 97.4435 86.0967 93.7635 103.27H107.487C107.564 103.04 107.64 102.81 107.717 102.503C109.174 95.6801 110.63 88.8567 112.01 82.1101C112.93 77.8167 114.08 73.6001 116.15 69.6901C117.224 67.5434 118.527 65.6267 120.367 64.0167C121.44 63.0967 122.744 62.4067 124.2 62.1767C127.037 61.7934 129.49 62.8667 130.027 66.2401C130.334 68.2334 130.027 70.2267 129.644 72.2201C127.65 81.6501 125.657 91.0801 123.664 100.51C123.51 101.43 123.28 102.35 123.127 103.27H136.927C137.004 102.963 137.08 102.733 137.157 102.427C138.307 97.0601 139.38 91.7701 140.53 86.4034C141.68 80.8834 142.83 75.3634 143.827 69.8434C144.44 66.6234 144.364 63.3267 143.444 60.1067C142.217 55.7367 139.61 52.6701 135.087 51.5201C130.87 50.4467 126.807 50.9067 122.974 52.9767C119.754 54.7401 117.3 57.4234 115.23 60.4134C115 60.7201 114.77 61.0267 114.54 61.4101L114.31 61.3334C114.617 58.2667 114.924 55.2001 115.23 52.0567L104.65 51.9801ZM67.1602 104.19C66.2402 103.96 65.2435 103.73 64.3235 103.5C57.1168 101.737 51.9802 96.0634 50.9068 88.7034C50.3702 85.4067 50.5235 82.1101 50.8302 78.8134C51.2135 75.0568 52.0568 71.4534 53.3602 68.0034C55.2002 63.2501 58.0368 59.1101 62.1768 55.8901C66.0102 52.9767 70.3035 51.4434 75.0568 50.9834C77.8935 50.7534 80.6535 50.8301 83.3368 51.4434C90.6202 53.2067 94.9135 57.8834 96.6002 65.0901C97.2902 68.0034 97.2902 70.9934 97.1368 73.9834C96.9068 77.9701 96.2935 81.8801 94.9902 85.7134C93.3035 90.6201 90.7735 94.9134 86.7868 98.3634C83.1835 101.43 78.9668 103.27 74.2902 103.883C73.9835 103.96 73.6768 104.037 73.2935 104.113H67.1602V104.19ZM83.4135 71.6067C83.4135 69.7667 83.2602 67.7734 82.4935 65.8567C81.7268 64.0167 80.3468 62.7901 78.3535 62.4067C76.1302 61.9467 73.9835 62.4834 72.1435 63.7867C69.9968 65.3201 68.6168 67.3901 67.5435 69.6901C65.6268 73.9067 64.7068 78.2767 64.4002 82.8767C64.3235 84.8701 64.4002 86.7867 65.0135 88.7034C65.7802 91.1567 67.4668 92.5367 69.9968 92.8434C72.6802 93.2267 74.9802 92.4601 76.9735 90.6201C78.8902 88.8567 80.1935 86.6334 81.1135 84.2568C82.7235 80.2701 83.3368 76.0534 83.4135 71.6067ZM3.8335 81.1134C3.98684 82.1101 4.14017 83.1834 4.2935 84.1801C4.90684 88.0901 6.1335 91.8467 8.51017 95.1434C11.9602 99.9734 16.7135 102.657 22.4635 103.73C23.3068 103.883 24.2268 104.037 25.0702 104.19H32.2768C32.5835 104.113 32.8902 104.037 33.1202 103.96C37.5668 103.577 41.7835 102.503 45.9235 100.97C46.2302 100.893 46.4602 100.74 46.6902 100.663V88.7801C46.2302 88.9334 45.9235 89.0868 45.5402 89.1634C43.4702 89.8534 41.4002 90.5434 39.3302 91.0801C35.5735 92.0768 31.7402 92.5368 27.8302 91.9234C23.8435 91.2334 20.9302 89.1634 19.3968 85.3301C18.7835 83.7201 18.4002 82.1101 18.2468 80.4234C17.8635 76.0534 18.1702 71.7601 19.1668 67.5434C20.3168 62.7901 22.0035 58.3434 25.0702 54.4334C29.6702 48.4534 35.7268 46.0001 43.2402 47.0734C46.5368 47.5334 49.5268 48.8367 52.4402 50.3701C52.9768 50.6767 53.5135 50.9834 54.1268 51.2901C55.9668 47.4567 57.7302 43.6234 59.5702 39.7901C58.4202 39.2534 57.3468 38.7167 56.2735 38.1801C52.1335 36.2634 47.6868 35.3434 43.1635 35.0368C39.0235 34.8068 34.9602 34.9601 30.9735 36.0334C22.9235 38.1034 16.7135 42.7801 12.0368 49.6034C7.66684 56.0434 5.13684 63.1734 4.21684 70.9167C4.0635 71.9901 3.91017 73.0634 3.75684 74.1367L3.8335 81.1134Z" fill="#3a4656"/>
</svg>
