<svg width="742" height="263" viewBox="0 0 742 263" fill="none" xmlns="http://www.w3.org/2000/svg">
<path d="M334.39 162.612C334.39 168.721 336.133 173.666 339.91 176.866C343.686 180.066 348.044 181.811 352.983 181.811C357.922 181.811 362.28 180.066 366.056 176.575C369.833 173.084 371.576 168.43 371.576 162.612V57.307C371.576 51.4891 369.543 46.8347 365.766 43.344C361.989 39.8532 357.631 38.3987 352.983 38.3987C348.044 38.3987 343.686 40.1441 339.91 43.344C336.133 46.8347 334.39 51.4891 334.39 57.307V162.612ZM352.983 0.582031C359.955 0.582031 366.928 2.03652 373.029 4.6546C379.13 7.27268 384.94 11.0543 390.17 16.2905C395.109 21.2358 399.176 26.4719 401.791 32.2899C404.696 39.5623 405.858 47.7074 405.858 57.307V162.612C405.858 178.611 401.209 191.993 391.622 202.756C387.846 206.828 383.488 210.028 378.839 212.646C371.286 216.428 362.28 217.882 352.111 217.301C344.848 216.719 338.747 213.228 334.39 206.828V262.099H299.818V54.3981C299.818 39.8532 305.047 27.0537 315.796 16.5814C320.735 11.6361 326.255 7.85447 332.065 5.23639C338.457 2.03652 345.429 0.582031 352.983 0.582031Z" fill="#494B52"/>
<path d="M280.934 213.81H246.362V57.8885H280.934V213.81Z" fill="#494B52"/>
<path d="M212.661 17.7448C223.411 28.2171 228.64 40.4348 228.64 54.9797V213.81H194.068V57.3069C194.068 52.0707 192.325 47.4164 188.548 43.6347C184.771 39.853 180.414 38.1076 175.475 38.1076C170.245 38.1076 165.888 39.853 162.401 43.6347C158.624 47.4164 156.881 52.0707 156.881 57.5978V214.101H122.309V55.5615C122.309 41.0166 127.539 28.2171 138.288 17.7448C149.037 7.27253 161.53 2.03638 175.475 2.03638C189.42 2.03638 201.912 7.27253 212.661 17.7448Z" fill="#494B52"/>
<path d="M456.699 56.7253C456.699 51.1983 458.442 46.5439 462.219 42.7623C465.996 38.9806 470.353 37.2352 475.873 37.2352C480.812 37.2352 485.461 38.9806 489.237 42.7623C493.014 46.5439 495.048 51.1983 495.048 56.7253V76.5064H456.989V56.7253H456.699ZM529.039 108.796V54.1073C529.039 39.8533 523.519 27.3447 512.77 16.8724C502.02 6.40009 489.528 1.16394 475.292 1.16394C459.895 1.16394 447.112 6.10919 437.234 16.2906C427.356 26.472 422.417 39.2715 422.417 54.6891V162.321C422.417 177.739 427.356 190.538 437.525 200.72C447.402 210.901 460.185 215.846 475.292 215.846C490.109 215.846 502.311 211.192 512.188 201.592C521.485 192.865 527.005 181.52 528.167 167.848H528.458V164.939V134.104H493.595V165.23C491.271 175.121 485.17 179.775 475.002 179.775C469.772 179.775 465.415 178.03 461.928 174.248C458.152 170.466 456.408 165.812 456.408 160.285V108.796H529.039Z" fill="#494B52"/>
<path d="M90.6426 92.7962C80.1838 83.1966 67.6914 77.9605 52.8748 77.0878C47.3549 76.506 42.7066 74.4697 39.5109 70.688C36.0246 66.9064 34.572 62.5429 34.572 57.5977C34.572 52.6524 36.3151 47.998 39.5109 43.9255C42.7066 39.8529 47.3549 38.1075 53.1653 38.1075C63.6241 38.1075 69.7251 43.0528 71.7587 52.9433H106.331C106.331 38.3984 100.811 26.1807 90.0615 16.5811C79.3122 6.98151 66.8198 2.32715 53.1653 2.32715C38.6393 2.32715 26.1469 7.5633 15.9787 18.3265C4.93886 29.0897 0 42.1801 0 57.5977C0 73.0152 4.93886 86.1056 15.1071 96.5779C25.2753 107.05 37.7677 112.577 52.5843 112.868C58.6853 112.868 63.3336 114.323 66.8198 117.232C70.0156 120.141 71.7587 124.504 71.7587 130.322V161.157C71.7587 166.393 70.3061 171.048 67.4009 175.12C64.4957 179.193 59.5568 180.938 52.8748 180.938C43.5782 180.938 37.7677 176.284 35.153 167.266V165.812V134.685H0V166.684C1.45261 180.065 7.26303 191.992 17.4313 201.592C27.5995 211.482 39.5109 216.719 52.5843 216.719C68.563 216.719 81.6364 211.773 91.5141 201.592C101.392 191.701 106.331 178.902 106.331 163.775V130.031C106.04 114.904 100.811 102.396 90.6426 92.7962Z" fill="#494B52"/>
<path d="M634.498 92.2143C624.039 82.6147 611.547 77.3786 596.73 76.5059C591.21 75.9241 586.562 73.8878 583.366 70.1061C579.88 66.3245 578.427 61.961 578.427 57.0157C578.427 52.0705 580.171 47.4161 583.366 43.3436C586.562 39.271 591.21 37.5256 597.021 37.5256C607.48 37.5256 613.581 42.4709 615.614 52.3614H650.186C650.186 37.8165 644.666 25.5988 633.917 15.9992C623.168 6.3996 610.675 1.74524 597.021 1.74524C582.495 1.74524 570.002 6.98139 559.544 17.7446C549.375 28.5078 544.146 41.5982 544.146 57.0157C544.146 72.4333 549.085 85.5237 559.253 95.996C569.421 106.468 581.914 111.995 596.73 112.286C602.831 112.286 607.77 113.741 610.966 116.359C614.162 119.268 615.905 123.631 615.905 129.449V160.284C615.905 165.52 614.452 170.175 611.547 174.247C608.642 178.32 603.703 180.065 597.021 180.065C587.724 180.065 581.623 175.411 579.299 166.102V165.23V134.104H544.436V166.102H544.727C546.18 179.484 551.99 191.41 562.158 201.01C572.327 210.9 584.238 216.137 597.311 216.137C613.29 216.137 626.363 211.191 635.951 201.01C645.828 191.119 650.767 178.32 650.767 163.193V129.449C650.186 114.032 644.957 101.814 634.498 92.2143Z" fill="#494B52"/>
<path d="M741.119 62.7743C741.119 71.2024 734.147 77.8867 726.012 77.8867H678.367C669.941 77.8867 663.26 70.9117 663.26 62.7743V15.1122C663.26 6.68419 670.232 -0.00012207 678.367 -0.00012207H726.012C734.437 -0.00012207 741.119 6.97481 741.119 15.1122V62.7743Z" fill="#EA640C"/>
<path d="M274.833 1.45459C278.61 1.45459 281.805 4.65447 281.805 8.43613V28.2172C281.805 31.9988 278.61 35.1987 274.833 35.1987H253.334C249.558 35.1987 246.362 31.9988 246.362 28.2172V8.43613C246.362 4.65447 249.558 1.45459 253.334 1.45459H274.833V1.45459Z" fill="#EA640C"/>
</svg>
